<?xml version="1.0" encoding="iso-8859-1"?>
<!-- Generator: Adobe Illustrator 19.0.0, SVG Export Plug-In . SVG Version: 6.00 Build 0)  -->
<svg version="1.1" id="Capa_1" xmlns="http://www.w3.org/2000/svg" xmlns:xlink="http://www.w3.org/1999/xlink" x="0px" y="0px"
	 viewBox="0 0 504.123 504.123" style="enable-background:new 0 0 504.123 504.123;" xml:space="preserve">
<circle style="fill:#FBBD5E;" cx="191.803" cy="399.36" r="104.763"/>
<rect x="17.723" y="7.877" style="fill:#E0E4E8;" width="468.677" height="358.4"/>
<path style="fill:#183651;" d="M487.188,373.366H17.723c-3.938,0-7.877-3.151-7.877-7.877V7.877C9.846,3.938,12.997,0,17.723,0
	H486.4c3.938,0,7.877,3.151,7.877,7.877v358.4C494.277,370.215,491.126,373.366,487.188,373.366z M25.6,358.4h453.711V14.966H25.6
	V358.4z"/>
<rect x="52.382" y="41.748" style="fill:#FFFFFF;" width="400.148" height="289.871"/>
<g>
	<rect x="82.314" y="71.68" style="fill:#2EA0DA;" width="163.052" height="56.714"/>
	<rect x="82.314" y="158.326" style="fill:#2EA0DA;" width="163.052" height="56.714"/>
	<rect x="82.314" y="244.972" style="fill:#2EA0DA;" width="163.052" height="56.714"/>
</g>
<path style="fill:#F06151;" d="M411.569,197.711c-17.329-13.391-33.083-35.446-33.083-35.446l-10.24-2.363l-51.2,33.083
	c-54.351,22.055-40.96,74.043-40.96,74.043c60.652,51.988,122.092,41.748,153.6,30.72v-63.015
	C429.686,220.554,423.385,206.375,411.569,197.711z"/>
<path style="fill:#FBBD5E;" d="M302.08,99.249l4.726-10.24l42.535-7.877l24.418,14.178l19.692,23.631l-1.575,24.418l-12.603,18.905
	c-12.603,17.329-24.418,26.782-33.871,31.508c-11.028,6.302-25.994,3.151-33.083-7.877C284.751,144.148,302.08,99.249,302.08,99.249
	z"/>
<g>
	<path style="fill:#183651;" d="M302.08,99.249c0,0-7.089-12.603-1.575-19.692c4.726-7.089,64.591-27.569,90.585,5.514
		c25.994,33.083-12.603,77.194-12.603,77.194s20.48-29.145,4.726-33.871c0,0-7.089-3.151-12.603,8.665
		c0,0,4.726-37.809-18.117-39.385c0,0-9.452-5.514-29.145,10.24C322.56,108.702,314.683,94.523,302.08,99.249z"/>
	<rect x="201.255" y="91.372" style="fill:#183651;" width="14.966" height="17.329"/>
	<rect x="156.357" y="91.372" style="fill:#183651;" width="14.966" height="17.329"/>
	<rect x="110.671" y="91.372" style="fill:#183651;" width="14.966" height="17.329"/>
	<rect x="201.255" y="178.018" style="fill:#183651;" width="14.966" height="17.329"/>
	<rect x="156.357" y="178.018" style="fill:#183651;" width="14.966" height="17.329"/>
	<rect x="110.671" y="178.018" style="fill:#183651;" width="14.966" height="17.329"/>
	<rect x="201.255" y="263.089" style="fill:#183651;" width="14.966" height="17.329"/>
	<rect x="156.357" y="263.089" style="fill:#183651;" width="14.966" height="17.329"/>
	<rect x="110.671" y="263.089" style="fill:#183651;" width="14.966" height="17.329"/>
</g>
<polygon style="fill:#FFFFFF;" points="236.702,424.566 229.612,335.557 151.631,378.092 178.412,386.757 148.48,441.895 
	184.714,461.588 214.646,406.449 "/>
<path style="fill:#183651;" d="M184.714,468.677c-1.575,0-2.363,0-3.938-0.788l-36.234-19.692c-3.938-2.363-4.726-6.302-3.151-10.24
	l25.994-47.262l-18.117-5.514c-3.151-0.788-4.726-3.151-5.514-6.302c0-3.151,1.575-5.514,3.938-7.089l77.982-42.535
	c2.363-1.575,4.726-1.575,7.089,0c2.363,1.575,3.938,3.151,3.938,6.302l7.089,89.009c0,3.151-1.575,5.514-3.938,7.089
	c-2.363,1.575-6.302,0.788-8.665-0.788l-14.178-12.603l-25.994,47.262c-0.788,1.575-2.363,3.151-4.726,3.938
	C186.289,468.677,185.502,468.677,184.714,468.677z M158.72,438.745l22.843,12.603l26.782-48.837
	c0.788-2.363,3.151-3.151,5.514-3.938c2.363-0.788,4.726,0,6.302,1.575l7.877,7.089l-4.726-59.865l-52.775,28.357l10.24,3.151
	c2.363,0.788,3.938,2.363,4.726,4.726c0.788,2.363,0.788,4.726,0,6.302L158.72,438.745z"/>
<g>
</g>
<g>
</g>
<g>
</g>
<g>
</g>
<g>
</g>
<g>
</g>
<g>
</g>
<g>
</g>
<g>
</g>
<g>
</g>
<g>
</g>
<g>
</g>
<g>
</g>
<g>
</g>
<g>
</g>
</svg>
