<?xml version="1.0" encoding="iso-8859-1"?>
<!-- Generator: Adobe Illustrator 19.0.0, SVG Export Plug-In . SVG Version: 6.00 Build 0)  -->
<svg version="1.1" id="Layer_1" xmlns="http://www.w3.org/2000/svg" xmlns:xlink="http://www.w3.org/1999/xlink" x="0px" y="0px"
	 viewBox="0 0 512 512" style="enable-background:new 0 0 512 512;" xml:space="preserve">
<path style="fill:#9CDBD8;" d="M203.343,269.59c0,8.041-6.413,14.561-14.323,14.561h-29.601v29.121
	c0,8.041-6.413,14.561-14.323,14.561s-14.323-6.519-14.323-14.561v-29.121h-29.601c-7.91,0-14.323-6.519-14.323-14.561
	s6.413-14.561,14.323-14.561h87.847C196.93,255.03,203.343,261.549,203.343,269.59z"/>
<g>
	<path style="fill:#81D3D1;" d="M203.343,269.59c0,8.041-6.413,14.561-14.323,14.561h-29.601v29.121
		c0,8.041-6.413,14.561-14.323,14.561c-0.534,0-1.059-0.035-1.578-0.093v-48.442c0-5.361,4.223-9.707,9.432-9.707l0,0
		c6.283,0,9.926-7.317,6.257-12.566c-0.464-0.664-0.926-1.329-1.386-1.994h31.198C196.93,255.03,203.343,261.549,203.343,269.59z"/>
	<path style="fill:#81D3D1;" d="M131.728,22.061c0,8.042-6.37,14.561-14.229,14.561H98.214c-7.858,0-14.229-6.519-14.229-14.561
		S90.355,7.5,98.214,7.5H117.5C125.358,7.5,131.728,14.019,131.728,22.061z M193.889,7.5h-19.286
		c-7.858,0-14.229,6.519-14.229,14.561s6.37,14.561,14.229,14.561h19.286c7.858,0,14.229-6.519,14.229-14.561
		C208.117,14.019,201.747,7.5,193.889,7.5z"/>
</g>
<path style="fill:#9CDBD8;" d="M131.712,21.737H84.001C84.171,13.846,90.462,7.5,98.214,7.5H117.5
	C125.251,7.5,131.542,13.846,131.712,21.737z M193.889,7.5h-19.286c-7.751,0-14.043,6.346-14.213,14.237h47.711
	C207.931,13.846,201.64,7.5,193.889,7.5z"/>
<path style="fill:#FC7F59;" d="M265.017,353.467C205.261,297.21,92.901,172.085,153.018,97.32l0,0
	c28.776-29.16,75.431-29.16,104.207,0l40.946,41.493l40.946-41.493c28.776-29.16,75.431-29.16,104.207,0l0,0
	c60.117,74.766-52.244,199.89-111.999,256.147c-9.013,8.485-20.851,13.193-33.154,13.193l0,0
	C285.868,366.66,274.03,361.952,265.017,353.467z"/>
<path style="fill:#F4684D;" d="M331.324,353.467c-9.013,8.485-20.851,13.193-33.154,13.193c-4.837,0-9.598-0.738-14.148-2.137
	c7.023-2.159,13.536-5.907,19.006-11.056c59.757-56.257,172.117-181.382,112-256.147l0,0
	c-10.772-10.916-24.049-17.743-37.956-20.487c23.244-4.586,48.247,2.242,66.251,20.487l0,0
	C503.441,172.085,391.08,297.21,331.324,353.467z"/>
<path style="fill:#CECECE;" d="M386.064,306.8v48.535c0,8.041-6.413,14.561-14.323,14.561s-14.323-6.519-14.323-14.561V306.8
	H386.064z"/>
<path style="fill:#DDDDDD;" d="M357.418,355.335V306.8h14.914v63.065c-0.198,0.008-0.392,0.03-0.591,0.03
	C363.831,369.896,357.418,363.377,357.418,355.335z"/>
<path style="fill:#B0EAE7;" d="M370.945,201.641c31.202,0,56.496,25.714,56.496,57.433s-25.294,57.433-56.496,57.433
	s-56.496-25.714-56.496-57.433S339.743,201.641,370.945,201.641z"/>
<path style="fill:#81D3D1;" d="M370.945,221.348c20.496,0,37.111,16.891,37.111,37.726S391.441,296.8,370.945,296.8
	s-37.111-16.891-37.111-37.726S350.449,221.348,370.945,221.348z"/>
<path style="fill:#DDDDDD;" d="M370.945,234.855c13.157,0,23.824,10.843,23.824,24.219s-10.666,24.219-23.824,24.219
	c-13.157,0-23.824-10.843-23.824-24.219S357.788,234.855,370.945,234.855z"/>
<path d="M175.734,44.121h19.451c8.75,0,16.325-5.122,19.888-12.526c11.976,4.535,20.198,16.085,20.198,29.293
	c0,4.142,3.357,7.5,7.499,7.5c4.141,0,7.499-3.358,7.499-7.5c0-20.941-13.981-39.067-33.8-44.607C213.923,6.912,205.348,0,195.186,0
	h-19.451c-12.162,0-22.057,9.896-22.057,22.061S163.572,44.121,175.734,44.121z M175.734,15h19.451c3.892,0,7.059,3.167,7.059,7.061
	s-3.167,7.061-7.059,7.061h-19.451c-3.892,0-7.059-3.167-7.059-7.061S171.842,15,175.734,15z M371.312,227.355
	c-17.498,0-31.734,14.229-31.734,31.719s14.236,31.719,31.734,31.719s31.734-14.229,31.734-31.719
	C403.046,241.584,388.81,227.355,371.312,227.355z M371.312,275.793c-9.229,0-16.736-7.5-16.736-16.719s7.508-16.719,16.736-16.719
	s16.736,7.5,16.736,16.719S380.541,275.793,371.312,275.793z M371.312,194.141c-35.825,0-64.971,29.129-64.971,64.933
	c0,28.364,18.299,52.523,43.711,61.345v34.917c0,9.533,6.081,17.672,14.57,20.747v15.007c0,58.399-47.546,105.91-105.987,105.91
	c-58.442,0-105.988-47.511-105.988-105.91v-56.906c8.74-2.937,15.056-11.198,15.056-20.912v-21.621h27.628
	c23.69,28.536,48.193,52.554,64.149,67.321c10.583,9.794,24.369,15.188,38.819,15.188c14.451,0,28.236-5.394,38.82-15.188
	c3.04-2.813,3.224-7.559,0.411-10.599c-2.813-3.041-7.558-3.225-10.597-0.411c-7.802,7.221-17.972,11.198-28.634,11.198
	c-10.661,0-20.831-3.977-28.633-11.198C227.75,309.171,95.845,176.943,156.201,102.365c26.33-25.939,68.934-25.85,95.16,0.275
	l57.559,57.181c2.938,2.918,7.686,2.903,10.605-0.036c2.918-2.938,2.903-7.688-0.036-10.606l-57.551-57.173
	c-32.145-32.021-84.446-32.021-116.59,0c-0.18,0.18-0.352,0.368-0.512,0.565c-15.632,19.11-21.747,42.456-18.176,69.389
	c1.736,13.097,5.816,27.13,12.149,41.946c-46.249-3.522-82.81-42.522-82.81-89.955V60.888c0-13.737,9.12-25.8,21.883-29.862
	c3.443,7.707,11.175,13.095,20.146,13.095h19.452c12.162,0,22.057-9.896,22.057-22.061S129.639,0,117.477,0H98.026
	C88.053,0,79.61,6.656,76.891,15.758C56.19,20.558,41,39.332,41,60.888v169.874c0,23.182,16.71,42.244,38.999,45.742
	c2.909,8.787,11.2,15.147,20.953,15.147h22.613v21.621c0,9.35,5.852,17.354,14.085,20.56v57.258
	c0,66.67,54.274,120.91,120.986,120.91S379.62,457.76,379.62,391.09v-15.007c8.489-3.075,14.571-11.214,14.571-20.747v-35.497
	c24.568-9.271,42.092-33.006,42.092-60.765C436.282,223.27,407.137,194.141,371.312,194.141z M98.026,15h19.452
	c3.892,0,7.059,3.167,7.059,7.061s-3.167,7.061-7.059,7.061H98.026c-3.892,0-7.059-3.167-7.059-7.061S94.133,15,98.026,15z
	 M80.489,261.343c-14.122-3.101-24.492-15.564-24.492-30.58v-62.588c18.335,30.532,51.653,50.991,89.637,50.991
	c0.117,0,0.235-0.007,0.352-0.008c2.861,5.582,6.002,11.257,9.457,17.029c2.28,3.808,4.658,7.589,7.102,11.343h-61.594
	C91.7,247.53,83.764,253.254,80.489,261.343z M145.634,320.332c-3.899,0-7.072-3.167-7.072-7.061V284.15
	c0-4.142-3.357-7.5-7.499-7.5h-30.112c-3.899,0-7.072-3.167-7.072-7.061s3.172-7.061,7.072-7.061h71.85
	c3.424,4.784,6.938,9.496,10.512,14.121h-23.109c-4.141,0-7.499,3.358-7.499,7.5v29.121
	C152.706,317.165,149.534,320.332,145.634,320.332z M379.193,355.335c0,3.893-3.172,7.061-7.072,7.061
	c-3.899,0-7.071-3.167-7.071-7.061V323.7c2.062,0.198,4.149,0.308,6.262,0.308c2.669,0,5.296-0.181,7.882-0.495L379.193,355.335
	L379.193,355.335z M371.312,309.007c-27.555,0-49.973-22.4-49.973-49.934c0-27.533,22.418-49.933,49.973-49.933
	s49.973,22.4,49.973,49.933C421.285,286.607,398.867,309.007,371.312,309.007z M450.399,219.611
	c-1.331,2.583-3.953,4.065-6.671,4.065c-1.157,0-2.331-0.269-3.43-0.835c-3.681-1.898-5.127-6.421-3.229-10.103
	c23.922-46.413,25.042-83.544,3.328-110.373c-26.33-25.938-68.934-25.849-95.153,0.269l-24.886,24.792
	c-2.936,2.923-7.684,2.914-10.605-0.021c-2.923-2.935-2.914-7.683,0.021-10.606l24.886-24.792
	c32.145-32.021,84.446-32.021,116.591,0c0.18,0.18,0.351,0.368,0.512,0.565C477.861,124.478,477.402,167.22,450.399,219.611z"/>
<g>
</g>
<g>
</g>
<g>
</g>
<g>
</g>
<g>
</g>
<g>
</g>
<g>
</g>
<g>
</g>
<g>
</g>
<g>
</g>
<g>
</g>
<g>
</g>
<g>
</g>
<g>
</g>
<g>
</g>
</svg>
