<?xml version="1.0" encoding="iso-8859-1"?>
<!-- Generator: Adobe Illustrator 19.0.0, SVG Export Plug-In . SVG Version: 6.00 Build 0)  -->
<svg version="1.1" id="Capa_1" xmlns="http://www.w3.org/2000/svg" xmlns:xlink="http://www.w3.org/1999/xlink" x="0px" y="0px"
	 viewBox="0 0 496 496" style="enable-background:new 0 0 496 496;" xml:space="preserve">
<circle style="fill:#FB5968;" cx="248" cy="248" r="240"/>
<circle style="fill:#FCD770;" cx="248" cy="248" r="200"/>
<g>
	<path style="fill:#92E0C0;" d="M262.824,288c-0.984,5.704-2.528,11.328-4.376,16.856c-2.704,8.112-3.304,17.184-1.12,26.584
		c4.096,17.648,18.536,31.744,36.264,35.464c13.72,2.88,26.712-0.104,36.944-6.904l20.792-32c0.448-2.6,0.672-5.272,0.672-8
		c0-5.8-1.032-11.352-2.92-16.496c-3.376-9.184-5.08-18.888-5.08-28.664v-9.848c0-13.2,2.68-26.448,9.064-38
		c6.072-10.992,8.56-24.248,5.848-38.192c-4.248-21.856-21.848-39.464-43.704-43.704C279.36,138.144,248,165.408,248,200
		c0,9.368,2.312,18.2,6.384,25.952L262.824,288z"/>
	<path style="fill:#92E0C0;" d="M176,312c-1.224,0-2.384,0.224-3.576,0.36C174.68,307.352,176,301.84,176,296
		c0-22.088-17.912-40-40-40s-40,17.912-40,40s17.912,40,40,40c3.296,0,6.456-0.512,9.528-1.264C144.624,337.688,144,340.752,144,344
		c0,17.672,14.328,32,32,32s32-14.328,32-32S193.672,312,176,312z"/>
	<circle style="fill:#92E0C0;" cx="168" cy="168" r="40"/>
</g>
<path style="fill:#FB5968;" d="M94.528,119.792l281.68,281.68c9.152-7.656,17.608-16.112,25.264-25.264l-281.68-281.68
	C110.64,102.184,102.184,110.64,94.528,119.792z"/>
<path d="M248,40C133.312,40,40,133.312,40,248c0,114.696,93.312,208,208,208s208-93.304,208-208C456,133.312,362.688,40,248,40z
	 M56,248c0-43.952,14.88-84.472,39.816-116.872l25.76,25.76c-0.256,1.032-0.648,2.08-0.84,3.104H112v16h8.72
	c1.232,7.272,4.08,13.992,8.2,19.768l-6.176,6.176l11.312,11.312l6.176-6.176c5.776,4.128,12.496,6.976,19.768,8.208V224h16v-8.744
	c1.032-0.184,2.072-0.584,3.104-0.84l75.184,75.184c-0.832,3.976-1.904,8.128-3.432,12.728c-1.048,3.144-1.704,6.392-2.168,9.672
	H240v16h8.68c0.24,1.752,0.448,3.512,0.856,5.256c1.744,7.504,5.064,14.384,9.528,20.36l-5.976,5.984l11.32,11.312l5.952-5.96
	c6.304,4.704,13.632,8.104,21.584,9.776c1.352,0.28,2.704,0.448,4.048,0.64V384h16v-8.584c7.288-1.04,14.256-3.616,20.656-7.456
	l32.216,32.216C332.472,425.12,291.952,440,248,440C142.136,440,56,353.864,56,248z M136.376,171.688l27.944,27.944
	C149.648,197.92,138.08,186.352,136.376,171.688z M295.24,359.08c-14.64-3.08-26.744-14.904-30.12-29.44
	c-1.768-7.64-1.464-15.128,0.92-22.256c0.536-1.616,0.92-3.104,1.384-4.648l53.392,53.392
	C312.952,359.792,304.104,360.928,295.24,359.08z M377.208,389.896L106.104,118.792c4.032-4.424,8.264-8.656,12.688-12.688
	L389.888,377.2C385.864,381.632,381.632,385.864,377.208,389.896z M199.624,164.312l-27.944-27.944
	C186.352,138.08,197.92,149.648,199.624,164.312z M261.464,222.24C257.84,215.336,256,207.848,256,200
	c0-14.384,6.368-27.888,17.48-37.048c11.104-9.168,25.752-12.824,40.2-10.008c18.712,3.624,33.736,18.648,37.376,37.376
	c2.232,11.496,0.504,22.832-5,32.8C339.48,235.032,336,249.512,336,264.984v9.848c0,10.792,1.872,21.36,5.568,31.424l-76.752-76.752
	L261.464,222.24z M400.184,364.872L363.312,328H368v-16h-8.704c-0.552-3.832-1.376-7.608-2.712-11.256
	c-3.04-8.288-4.584-17.008-4.584-25.912v-9.848c0-12.776,2.792-24.576,8.064-34.136c3.968-7.176,6.408-14.888,7.408-22.848H384v-16
	h-16.52c-0.192-1.576-0.408-3.16-0.72-4.736c-1.912-9.824-6.224-18.84-12.192-26.52l11.656-11.656l-11.312-11.312l-11.656,11.656
	c-7.688-5.976-16.704-10.296-26.536-12.2c-1.576-0.304-3.144-0.456-4.72-0.648V120h-16v16.568
	c-11.312,1.424-22.056,5.848-31.192,12.936l-11.728-11.728l-11.312,11.312l11.664,11.664C244.792,171.872,240,185.608,240,200
	c0,1.672,0.168,3.328,0.304,4.992l-25.88-25.88c0.256-1.032,0.648-2.08,0.84-3.104H224v-16h-8.72
	c-1.232-7.272-4.08-13.992-8.2-19.768l6.176-6.176l-11.312-11.312l-6.176,6.176c-5.776-4.128-12.496-6.976-19.768-8.208V112h-16
	v8.744c-1.032,0.184-2.072,0.584-3.104,0.84l-25.76-25.76C163.528,70.88,204.048,56,248,56c105.864,0,192,86.136,192,192
	C440,291.952,425.12,332.472,400.184,364.872z"/>
<rect x="232" width="32" height="16"/>
<rect x="140.152" y="18.261" transform="matrix(-0.9238 0.3828 -0.3828 -0.9238 310.4608 -9.2555)" width="31.999" height="16"/>
<rect x="62.296" y="70.296" transform="matrix(-0.7071 0.7071 -0.7071 -0.7071 189.0229 78.2961)" width="32" height="16"/>
<rect x="10.267" y="148.156" transform="matrix(-0.3828 0.9238 -0.9238 -0.3828 180.5824 191.6687)" width="31.999" height="16"/>
<rect y="232" width="16" height="32"/>
<rect x="18.266" y="323.856" transform="matrix(-0.9239 0.3827 -0.3827 -0.9239 180.592 643.7892)" width="16" height="32.001"/>
<rect x="70.292" y="401.687" transform="matrix(-0.707 0.7072 -0.7072 -0.707 429.0365 657.6262)" width="16" height="32"/>
<rect x="148.149" y="453.728" transform="matrix(-0.3826 0.9239 -0.9239 -0.3826 649.8784 505.1798)" width="16" height="32"/>
<rect x="232" y="480" width="32" height="16"/>
<rect x="323.833" y="461.689" transform="matrix(-0.9238 0.3828 -0.3828 -0.9238 833.5804 773.5085)" width="31.999" height="16"/>
<rect x="401.677" y="409.68" transform="matrix(-0.7071 0.7071 -0.7071 -0.7071 1008.3629 417.6824)" width="32" height="16"/>
<rect x="453.716" y="331.821" transform="matrix(-0.3828 0.9238 -0.9238 -0.3828 963.4637 35.9717)" width="31.999" height="16"/>
<rect x="480" y="232" width="16" height="32"/>
<rect x="461.748" y="140.165" transform="matrix(-0.9239 0.3827 -0.3827 -0.9239 963.501 120.6757)" width="16" height="32.001"/>
<rect x="409.682" y="62.318" transform="matrix(-0.7071 0.7071 -0.7071 -0.7071 768.407 -161.6495)" width="16" height="32"/>
<rect x="331.846" y="10.258" transform="matrix(-0.3827 0.9239 -0.9239 -0.3827 494.1618 -277.6686)" width="16" height="32.001"/>
<path d="M183.192,304.648C183.728,301.8,184,298.912,184,296c0-26.472-21.528-48-48-48s-48,21.528-48,48s21.528,48,48,48
	c0,22.056,17.944,40,40,40s40-17.944,40-40C216,324.4,201.832,308.048,183.192,304.648z M176,368c-13.232,0-24-10.768-24-24
	c0-2.096,0.376-4.296,1.176-6.936c0.84-2.752,0.136-5.736-1.84-7.832c-1.528-1.616-3.64-2.496-5.816-2.496
	c-0.632,0-1.272,0.08-1.904,0.224c-2.888,0.712-5.304,1.04-7.616,1.04c-17.648,0-32-14.352-32-32s14.352-32,32-32s32,14.352,32,32
	c0,4.456-0.968,8.848-2.864,13.08c-1.176,2.616-0.856,5.672,0.832,7.992s4.464,3.536,7.352,3.24l1.224-0.16
	c0.48-0.064,0.96-0.152,1.456-0.152c13.232,0,24,10.768,24,24S189.232,368,176,368z"/>
<path d="M384,280c17.648,0,32-14.352,32-32h-16c0,8.824-7.176,16-16,16V280z"/>
<path d="M216,408v16c17.648,0,32-14.352,32-32h-16C232,400.824,224.824,408,216,408z"/>
<path d="M104,224c-8.824,0-16-7.176-16-16H72c0,17.648,14.352,32,32,32V224z"/>
<path d="M240,80h-16c0,17.648,14.352,32,32,32V96C247.176,96,240,88.824,240,80z"/>
<circle cx="136" cy="296" r="8"/>
<circle cx="176" cy="344" r="8"/>
<rect x="296" y="168" width="16" height="16"/>
<rect x="320" y="200" width="16" height="16"/>
<rect x="272" y="208" width="16" height="16"/>
<rect x="304" y="240" width="16" height="16"/>
<g>
</g>
<g>
</g>
<g>
</g>
<g>
</g>
<g>
</g>
<g>
</g>
<g>
</g>
<g>
</g>
<g>
</g>
<g>
</g>
<g>
</g>
<g>
</g>
<g>
</g>
<g>
</g>
<g>
</g>
</svg>
