<?xml version="1.0" encoding="iso-8859-1"?>
<!-- Generator: Adobe Illustrator 19.0.0, SVG Export Plug-In . SVG Version: 6.00 Build 0)  -->
<svg version="1.1" id="Capa_1" xmlns="http://www.w3.org/2000/svg" xmlns:xlink="http://www.w3.org/1999/xlink" x="0px" y="0px"
	 viewBox="0 0 480 480" style="enable-background:new 0 0 480 480;" xml:space="preserve">
<path style="fill:#A9BFD1;" d="M392,332c-4.418,0-8,3.582-8,8v40H184v-40c0-4.418-3.582-8-8-8s-8,3.582-8,8v40H96v-40
	c0-4.418-3.582-8-8-8s-8,3.582-8,8v96c0,4.418,3.582,8,8,8s8-3.582,8-8v-40h72v48h-32c-4.418,0-8,3.582-8,8v16c0,4.418,3.582,8,8,8
	s8-3.582,8-8v-8h64v8c0,4.418,3.582,8,8,8s8-3.582,8-8v-16c0-4.418-3.582-8-8-8h-32v-48h200v40c0,4.418,3.582,8,8,8s8-3.582,8-8v-96
	C400,335.582,396.418,332,392,332z"/>
<path style="fill:#D6D8E8;" d="M40,228h56v56H40V228z"/>
<g>
	<path style="fill:#A9BFD1;" d="M240,76c-4.418,0-8,3.582-8,8v16h-96V84c0-4.418-3.582-8-8-8s-8,3.582-8,8v24c0,4.418,3.582,8,8,8
		h40v104c0,4.418,3.582,8,8,8s8-3.582,8-8V116h32v32c0,4.418,3.582,8,8,8s8-3.582,8-8v-32h8c4.418,0,8-3.582,8-8V84
		C248,79.582,244.418,76,240,76z"/>
	<path style="fill:#A9BFD1;" d="M472,292c-4.418,0-8-3.582-8-8v-80c0-4.418,3.582-8,8-8s8,3.582,8,8v80
		C480,288.418,476.418,292,472,292z"/>
	<path style="fill:#A9BFD1;" d="M8,292c-4.418,0-8-3.582-8-8V172c0-4.418,3.582-8,8-8s8,3.582,8,8v112C16,288.418,12.418,292,8,292z
		"/>
</g>
<g>
	<path style="fill:#5A6570;" d="M88,476c-13.255,0-24-10.745-24-24s10.745-24,24-24s24,10.745,24,24S101.255,476,88,476z M88,444
		c-4.418,0-8,3.582-8,8s3.582,8,8,8s8-3.582,8-8S92.418,444,88,444z"/>
	<path style="fill:#5A6570;" d="M392,476c-13.255,0-24-10.745-24-24s10.745-24,24-24s24,10.745,24,24S405.255,476,392,476z M392,444
		c-4.418,0-8,3.582-8,8s3.582,8,8,8s8-3.582,8-8S396.418,444,392,444z"/>
</g>
<path style="fill:#C1D6E8;" d="M0,276h480v64H0V276z"/>
<path style="fill:#A5A9B7;" d="M0,324h480v16H0V324z"/>
<path style="fill:#E2C7A1;" d="M144,276v-64h225.656c10.025-0.031,19.979,1.682,29.416,5.064c16.969,4.968,30.3,18.14,35.472,35.048
	L440,276H144z"/>
<path style="fill:#B59B7C;" d="M144,212h64v64h-64V212z"/>
<path style="fill:#A5A9B7;" d="M40,260h56v16H40V260z"/>
<path style="fill:#A3E1EF;" d="M208,140h32v48h-32V140z"/>
<path style="fill:#C63846;" d="M416,44h-40V4h-32v40h-40v32h40v40h32V76h40V44z"/>
<g>
</g>
<g>
</g>
<g>
</g>
<g>
</g>
<g>
</g>
<g>
</g>
<g>
</g>
<g>
</g>
<g>
</g>
<g>
</g>
<g>
</g>
<g>
</g>
<g>
</g>
<g>
</g>
<g>
</g>
</svg>
