<?xml version="1.0" encoding="iso-8859-1"?>
<!-- Generator: Adobe Illustrator 19.0.0, SVG Export Plug-In . SVG Version: 6.00 Build 0)  -->
<svg version="1.1" id="Layer_1" xmlns="http://www.w3.org/2000/svg" xmlns:xlink="http://www.w3.org/1999/xlink" x="0px" y="0px"
	 viewBox="0 0 511.999 511.999" style="enable-background:new 0 0 511.999 511.999;" xml:space="preserve">
<path style="fill:#E2C35A;" d="M478.072,120.289H83.277c-13.628,0-24.675,11.047-24.675,24.675v49.349l407.133,271.406h11.438
	c14.037,0.5,25.574-10.732,25.574-24.659V144.963C502.747,131.335,491.7,120.289,478.072,120.289z"/>
<path style="fill:#D9B43A;" d="M493.494,444.127c-10.22,0-18.506-8.286-18.506-18.506V181.975c0-24.474-19.104-44.556-43.181-46.15
	v-15.536h-66.622l75.875,345.43h36.113c12.989,0.463,23.816-9.125,25.366-21.59h-9.044V444.127z"/>
<path style="fill:#E7E4CD;" d="M379.374,46.264H132.627c-13.628,0-24.675,11.047-24.675,24.675V206.65h296.096V70.939
	C404.048,57.311,393.001,46.264,379.374,46.264z"/>
<path style="fill:#C1BDAB;" d="M340.533,135.093c-22.221,0-43.661,9.317-58.821,25.562l0,0c-6.79,7.277-16.396,11.45-26.35,11.45
	h-147.41v34.545h296.096v-71.557H340.533z"/>
<path style="fill:#EBD37A;" d="M477.173,465.718c-13.371-0.475-23.775-11.871-23.775-25.25V181.975
	c0-13.628-11.047-24.675-24.675-24.675h-88.19c-16.147,0-31.569,6.702-42.586,18.506l0,0
	c-11.017,11.804-26.439,18.506-42.586,18.506H33.928c-13.628,0-24.675,11.047-24.675,24.675V441.06
	c0,13.628,11.047,24.675,24.675,24.675h444.145L477.173,465.718z"/>
<path style="fill:#E2C35A;" d="M477.173,465.718c-13.371-0.475-23.775-11.871-23.775-25.25L9.253,441.06
	c0,13.628,11.047,24.675,24.675,24.675h444.145L477.173,465.718z"/>
<path style="fill:#AB5034;" d="M286.843,293.011h-18.506v-18.506c0-10.22-8.286-18.506-18.506-18.506h-12.337
	c-10.22,0-18.506,8.286-18.506,18.506v18.506h-18.506c-10.22,0-18.506,8.286-18.506,18.506v12.337
	c0,10.22,8.286,18.506,18.506,18.506h18.506v18.506c0,10.22,8.286,18.506,18.506,18.506h12.337c10.22,0,18.506-8.286,18.506-18.506
	v-18.506h18.506c10.22,0,18.506-8.286,18.506-18.506v-12.337C305.349,301.297,297.064,293.011,286.843,293.011z"/>
<path d="M478.072,111.036h-44.414c-5.111,0-9.253,4.143-9.253,9.253c0,5.11,4.142,9.253,9.253,9.253h44.414
	c8.504,0,15.422,6.918,15.422,15.422V441.06c0,4.223-1.674,8.165-4.714,11.099c-3.039,2.931-7.045,4.464-11.279,4.313
	c-8.19-0.291-14.85-7.47-14.85-16.003V181.975c0-18.708-15.221-33.928-33.928-33.928h-15.422V70.939
	c0-18.708-15.221-33.928-33.928-33.928H132.627c-18.707,0-33.928,15.219-33.928,33.928v40.096H83.277
	c-18.707,0-33.928,15.219-33.928,33.928v22.207c0,5.11,4.142,9.253,9.253,9.253s9.253-4.143,9.253-9.253v-22.207
	c0-8.504,6.918-15.422,15.422-15.422h15.422v55.518H33.928C15.221,185.06,0,200.279,0,218.987V441.06
	c0,18.708,15.221,33.928,33.928,33.928h444.076c0.03,0,0.059,0,0.088,0c8.836,0,17.154-3.352,23.538-9.512
	c6.687-6.454,10.37-15.124,10.37-24.416V144.963C512,126.255,496.779,111.036,478.072,111.036z M117.205,70.939
	c0-8.504,6.918-15.422,15.422-15.422h246.747c8.504,0,15.422,6.918,15.422,15.422v77.108h-54.262
	c-18.643,0-36.63,7.817-49.349,21.445c-9.236,9.893-22.292,15.567-35.824,15.567H117.205V70.939z M33.928,456.481
	c-8.504,0-15.422-6.918-15.422-15.422V218.987c0-8.504,6.918-15.422,15.422-15.422H255.36c18.642,0,36.63-7.816,49.352-21.446
	c9.233-9.892,22.29-15.566,35.821-15.566h88.19c8.504,0,15.422,6.918,15.422,15.422v258.493c0,5.785,1.376,11.231,3.82,16.013
	H33.928z"/>
<path d="M157.301,92.53h197.398c5.11,0,9.253-4.142,9.253-9.253c0-5.111-4.143-9.253-9.253-9.253H157.301
	c-5.11,0-9.253,4.142-9.253,9.253C148.048,88.388,152.191,92.53,157.301,92.53z"/>
<path d="M157.301,129.542h197.398c5.11,0,9.253-4.142,9.253-9.253c0-5.111-4.143-9.253-9.253-9.253H157.301
	c-5.11,0-9.253,4.142-9.253,9.253C148.048,125.4,152.191,129.542,157.301,129.542z"/>
<path d="M268.337,157.301c0-5.11-4.143-9.253-9.253-9.253H157.301c-5.204,0-9.405,4.296-9.249,9.537
	c0.152,5.064,4.57,8.969,9.637,8.969h101.396C264.194,166.554,268.337,162.411,268.337,157.301z"/>
<path d="M286.843,283.758h-9.253v-9.253c0-15.307-12.453-27.759-27.759-27.759h-12.337c-15.306,0-27.759,12.452-27.759,27.759v9.253
	h-9.253c-15.306,0-27.759,12.452-27.759,27.759v12.337c0,15.307,12.453,27.759,27.759,27.759h9.253v9.253
	c0,15.307,12.453,27.759,27.759,27.759h12.337c5.111,0,9.253-4.143,9.253-9.253s-4.142-9.253-9.253-9.253h-12.337
	c-5.103,0-9.253-4.15-9.253-9.253v-18.506c0-5.11-4.142-9.253-9.253-9.253h-18.506c-5.103,0-9.253-4.15-9.253-9.253v-12.337
	c0-5.103,4.15-9.253,9.253-9.253h18.506c5.111,0,9.253-4.143,9.253-9.253v-18.506c0-5.103,4.15-9.253,9.253-9.253h12.337
	c5.103,0,9.253,4.15,9.253,9.253v18.506c0,5.11,4.142,9.253,9.253,9.253h18.506c5.103,0,9.253,4.15,9.253,9.253v12.337
	c0,5.103-4.15,9.253-9.253,9.253h-18.506c-5.111,0-9.253,4.143-9.253,9.253v18.506c0,5.11,4.142,9.253,9.253,9.253
	c5.111,0,9.253-4.143,9.253-9.253v-9.253h9.253c15.306,0,27.759-12.452,27.759-27.759v-12.337
	C314.602,296.211,302.149,283.758,286.843,283.758z"/>
<g>
</g>
<g>
</g>
<g>
</g>
<g>
</g>
<g>
</g>
<g>
</g>
<g>
</g>
<g>
</g>
<g>
</g>
<g>
</g>
<g>
</g>
<g>
</g>
<g>
</g>
<g>
</g>
<g>
</g>
</svg>
