<?xml version="1.0" encoding="iso-8859-1"?>
<!-- Generator: Adobe Illustrator 19.0.0, SVG Export Plug-In . SVG Version: 6.00 Build 0)  -->
<svg version="1.1" id="Layer_1" xmlns="http://www.w3.org/2000/svg" xmlns:xlink="http://www.w3.org/1999/xlink" x="0px" y="0px"
	 viewBox="0 0 511.998 511.998" style="enable-background:new 0 0 511.998 511.998;" xml:space="preserve">
<circle style="fill:#0F7986;" cx="255.999" cy="255.999" r="255.999"/>
<path style="fill:#15BDB2;" d="M214.496,56.618l-1.493,3.056c-1.283,2.631-3.319,4.267-5.523,4.983
	c-1.488,0.485-3.051,0.545-4.52,0.21c-1.479-0.337-2.864-1.083-3.991-2.19c-1.616-1.592-2.679-3.922-2.666-6.855
	c0.007-1.588,1.298-2.868,2.886-2.864c1.588,0.007,2.868,1.298,2.864,2.886c-0.004,1.24,0.377,2.161,0.952,2.732
	c0.346,0.339,0.78,0.571,1.237,0.675c0.463,0.106,0.97,0.084,1.453-0.073c0.802-0.262,1.577-0.924,2.117-2.031l2.252-4.608
	c0.454-0.999,1.459-1.696,2.628-1.696c12.319,0,69.197,0,81.515,0c1.169,0,2.174,0.695,2.628,1.696l2.252,4.608
	c0.54,1.107,1.316,1.769,2.117,2.031c0.485,0.157,0.992,0.179,1.453,0.073c0.456-0.104,0.893-0.335,1.237-0.675
	c0.576-0.571,0.957-1.49,0.952-2.732c-0.004-1.588,1.275-2.879,2.864-2.886c1.588-0.004,2.879,1.278,2.886,2.864
	c0.013,2.934-1.05,5.263-2.666,6.855c-1.127,1.107-2.511,1.849-3.991,2.19c-1.468,0.335-3.032,0.275-4.52-0.21
	c-2.205-0.717-4.238-2.352-5.523-4.983l-1.495-3.056h-35.023v334.197h-6.392V56.618h-36.497H214.496z"/>
<ellipse style="fill:#FED298;" cx="243.573" cy="323.826" rx="13.743" ry="13.498"/>
<path style="fill:#FEFEFE;" d="M312.347,150.807l0.115,58.371c0.299,49.23,0.554,92.67,3.629,130.249h-5.99
	c-2.79-37.687-2.846-81.072-3.146-130.207l-0.117-58.356L312.347,150.807z"/>
<path style="fill:#FED298;" d="M399.668,203.521c17.299,5.347,26.983,23.702,21.636,40.999c-2.456,7.941-7.64,13.581-14.119,17.053
	l-4.679,19.411l-26.507-11.057l3.461-7.611c-15.02-1.327-21.422-2.132-16.166-13.417c-2.19-1.3-3.056-5.443-0.308-7.175
	c0,0-1.264-2.002-0.793-3.519c0.467-1.517,2.826-4.015,2.895-4.046c-5.92-0.741-7.384-3.724-6.114-5.834
	c1.627-2.697,11.362-6.07,13.05-14.037c1.202-5.678,5.164-9.644,6.822-10.286c6.471-2.343,13.736-2.677,20.82-0.485L399.668,203.521
	z"/>
<path style="fill:#666666;" d="M378.877,203.999c0,0,22.192-0.011,26.736,7.903c4.544,7.914-5.83,9.48-2.225,14.104
	c3.603,4.624,0.401,15.222,0.401,15.222l3.962,0.518c0,0,1.616-6.723,6.672-4.094c5.058,2.628,0.419,13.207-5.424,15.822
	c-5.845,2.617-1.296,8.947-1.296,8.947c21.712-13.612,24.817-42.124,15.692-53.799c-10.054-12.865-41.142-18.785-44.523-4.621
	L378.877,203.999z"/>
<path style="fill:#15BDB2;" d="M232.135,332.953h77.362L342,288.339c24.781-46.791,87.482-13.138,58.471,31.146l-35.544,54.248
	c-8.427,12.865-16.137,18.638-31.854,17.934H232.137v-58.713H232.135z"/>
<path style="fill:#FAD24D;" d="M10.585,329.018h214.666v70.868H44.244C29.607,378.382,18.165,354.53,10.585,329.018z"/>
<g>
	<path style="fill:#FEFEFE;" d="M44.049,399.604h376.716v19.921H59.039C53.732,413.137,48.725,406.491,44.049,399.604z"/>
	<path style="fill:#FEFEFE;" d="M431.223,308.368h0.004c5.753,0,10.46,4.705,10.46,10.46v113.391
		c-6.597,6.949-13.588,13.521-20.922,19.693V318.825c0-5.755,4.705-10.46,10.46-10.46L431.223,308.368z"/>
</g>
<path style="fill:#D9DADA;" d="M59.039,419.525h361.724v-5.25H54.782C56.175,416.046,57.597,417.791,59.039,419.525z"/>
<path style="fill:#FFF985;" d="M233.949,329.355v70.249h-16.101v-70.249C217.848,323.683,233.949,323.683,233.949,329.355z"/>
<path style="fill:#FAD24D;" d="M413.754,316.861l0.004,0.002c7.567,5.117,9.569,15.494,4.449,23.061l-27.21,40.223
	c-5.117,7.567-15.494,9.569-23.061,4.451l-0.002-0.002c-7.567-5.12-9.569-15.494-4.449-23.061l27.208-40.223
	C395.811,313.747,406.187,311.743,413.754,316.861z"/>
<path style="fill:#21D0C3;" d="M368.985,273.992l-54.667,69.184l-55.659-29.66c-16.845-8.978-28.535,13.101-14.832,22.242
	l67.219,44.829c5.303,3.536,12.277,2.752,16.699-1.506c1.645-1.01,3.14-2.315,4.4-3.911l63.376-80.208
	C409.394,277.407,382.852,256.441,368.985,273.992z"/>
<path style="fill:#EEF3F7;" d="M233.949,386.461h186.816v13.145H233.949V386.461z"/>
<path style="fill:#D9DADA;" d="M275.308,83.877h51.968v56.651c0,5.655-4.624,10.279-10.279,10.279H285.59
	c-5.658,0-10.281-4.626-10.281-10.279V83.877H275.308z"/>
<path style="fill:#EEF3F7;" d="M275.308,83.877h51.968v51.501c0,6.344-5.188,11.531-11.531,11.531h-35.238
	c-1.16,0-2.278-0.177-3.335-0.496c-1.173-1.669-1.863-3.702-1.863-5.884V83.877z"/>
<path style="fill:#FEFEFE;" d="M275.308,95.507h51.968v30.429h-51.968V95.507z"/>
<path style="fill:#EEF3F7;" d="M287.865,150.809h5.728v6.663h-5.728V150.809z"/>
<path style="fill:#FEFEFE;" d="M283.875,157.47h13.699v5.527h-13.699V157.47z"/>
<path style="fill:#FF5B62;" d="M301.292,93.833c9.327,0,16.889,7.56,16.889,16.887s-7.56,16.887-16.889,16.887
	c-9.327,0-16.887-7.56-16.887-16.887S291.966,93.833,301.292,93.833z"/>
<path style="fill:#FEFEFE;" d="M299.299,59c0-1.111,0.904-2.013,2.013-2.013c1.111,0,2.015,0.902,2.015,2.013v24.877
	c0,1.111-0.904,2.013-2.015,2.013c-1.109,0-2.013-0.899-2.013-2.013V59z"/>
<path style="fill:#FFFFFF;" d="M298.344,99.867h5.895v7.903h7.907v5.9h-7.907v7.909h-5.895v-7.909h-7.909v-5.9h7.909V99.867z"/>
<path style="fill:#EBECEC;" d="M35.9,96.158h174.524c5.999,0,10.908,4.91,10.908,10.908v113.169c0,5.999-4.908,10.908-10.908,10.908
	H35.9c-5.999,0-10.908-4.908-10.908-10.908V107.065C24.992,101.065,29.899,96.158,35.9,96.158z"/>
<path style="fill:#21D0C3;" d="M60.444,107.746h151.345v103.623H60.444V107.746z"/>
<g>
	<path style="fill:#EBECEC;" d="M43.079,178.61c3.964,0,7.179,3.215,7.179,7.179s-3.215,7.179-7.179,7.179s-7.179-3.213-7.179-7.179
		C35.9,181.825,39.113,178.61,43.079,178.61z"/>
	<path style="fill:#EBECEC;" d="M43.079,197.66c2.026,0,3.669,1.643,3.669,3.669c0,2.024-1.643,3.669-3.669,3.669
		c-2.026,0-3.669-1.643-3.669-3.669S41.052,197.66,43.079,197.66z"/>
</g>
<g>
	<path style="fill:#FEFEFE;" d="M98.512,125.29c0.091,0.159,0.095,0.357-0.002,0.523 M156.394,125.29
		c0.088,0.159,0.091,0.357-0.007,0.523 M65.502,129.124c-0.291,0-0.523-0.236-0.523-0.52c0-0.286,0.234-0.516,0.523-0.516h18.329
		l3.317-8.054c0.113-0.262,0.414-0.392,0.677-0.28c0.135,0.053,0.234,0.161,0.284,0.286l0.002-0.002l5.058,12.768l4.447-7.523
		c0.146-0.25,0.465-0.328,0.713-0.183c0.082,0.051,0.144,0.113,0.186,0.19l2.615,4.008l3.738-3.975
		c0.192-0.21,0.52-0.214,0.732-0.022c0.038,0.042,0.068,0.08,0.093,0.13h0.007l1.488,2.659c11.511,0,23.012,0,34.521,0l3.322-8.054
		c0.11-0.262,0.414-0.392,0.677-0.28c0.135,0.053,0.234,0.161,0.282,0.286l0.004-0.002l5.06,12.768l4.445-7.523
		c0.146-0.25,0.463-0.328,0.71-0.183c0.08,0.051,0.144,0.113,0.19,0.19l2.613,4.008l3.735-3.975c0.194-0.21,0.523-0.214,0.735-0.022
		c0.04,0.042,0.068,0.08,0.095,0.13h0.004l1.493,2.659h9.461v1.041l-9.77,0.002l0,0c-0.181,0-0.357-0.097-0.45-0.269l-1.296-2.308
		l-3.7,3.935l0,0c-0.029,0.029-0.06,0.057-0.095,0.08c-0.243,0.157-0.565,0.084-0.717-0.157l-2.531-3.882l-4.553,7.704
		c-0.057,0.108-0.15,0.192-0.264,0.236c-0.266,0.11-0.571-0.024-0.675-0.295l-4.976-12.561l-2.952,7.148
		c-0.066,0.21-0.262,0.361-0.498,0.361h-8.543c-0.015,0.007-0.038,0.007-0.057,0.007H106.89l0,0c-0.186,0-0.364-0.097-0.454-0.269
		l-1.292-2.308l-3.704,3.935l0,0c-0.029,0.029-0.06,0.057-0.097,0.08c-0.243,0.157-0.558,0.084-0.717-0.157l-2.533-3.882
		l-4.551,7.704c-0.057,0.108-0.146,0.192-0.266,0.236c-0.266,0.11-0.569-0.024-0.673-0.295l-4.978-12.561l-2.948,7.148
		c-0.071,0.21-0.264,0.361-0.498,0.361H65.504h-0.002V129.124z"/>
	<path style="fill:#FEFEFE;" d="M120.424,156.766c-0.093,0.155-0.097,0.352,0,0.518 M167.398,156.766
		c-0.088,0.155-0.095,0.352,0.004,0.518 M174.526,159.778l-1.784,4.507l-4.447-7.527c-0.148-0.25-0.463-0.333-0.71-0.186
		c-0.084,0.053-0.146,0.117-0.19,0.194l-2.613,4.006l-3.735-3.971c-0.197-0.212-0.523-0.225-0.732-0.027
		c-0.042,0.035-0.068,0.08-0.095,0.122h-0.007l-1.49,2.664c-11.507,0-12.113-0.002-23.619-0.002l-3.322-8.05
		c-0.11-0.264-0.414-0.388-0.675-0.28c-0.135,0.053-0.234,0.161-0.286,0.286l0,0l-5.06,12.773l-4.44-7.527
		c-0.15-0.25-0.465-0.333-0.715-0.186c-0.077,0.053-0.144,0.117-0.183,0.194l-2.617,4.006l-3.731-3.971
		c-0.201-0.212-0.529-0.225-0.739-0.027c-0.038,0.035-0.071,0.08-0.097,0.122l0,0l-1.49,2.664H65.5c-0.291,0-0.523,0.236-0.523,0.52
		c0,0.286,0.234,0.52,0.523,0.52h46.553l0,0c0.183,0,0.355-0.097,0.452-0.264l1.294-2.31l3.704,3.935l0,0
		c0.029,0.029,0.057,0.055,0.093,0.08c0.243,0.157,0.565,0.086,0.719-0.15l2.533-3.887l4.548,7.708
		c0.057,0.104,0.152,0.186,0.269,0.236c0.264,0.104,0.569-0.029,0.675-0.293l4.976-12.565l2.948,7.146
		c0.066,0.21,0.264,0.364,0.498,0.364c11.725,0,12.543,0.002,24.268,0.002l0,0c0.183,0,0.359-0.097,0.454-0.264l1.296-2.31
		l3.704,3.935l0,0c0.024,0.029,0.06,0.055,0.091,0.08c0.243,0.157,0.56,0.086,0.719-0.15l2.531-3.887l4.553,7.708
		c0.055,0.104,0.146,0.186,0.264,0.236c0.266,0.104,0.569-0.029,0.675-0.293l1.209-3.051v-2.822L174.526,159.778L174.526,159.778z"
		/>
	<path style="fill:#FEFEFE;" d="M65.153,186.709c0.038-0.002,13.882-1.021,16.572-0.172c0.516,0.161,0.95-0.45,1.426-1.131l0,0
		c1.222-1.729,2.644-3.733,6.685-0.518c4.617,3.676,7.602,6.807,8.548,7.834c1.069-0.5,3.869-1.905,4.231-2.943
		c0.304-0.875,1.559-1.552,3.135-2.044c2.002-0.635,4.599-1.036,6.211-1.162c0.815-0.06,1.803-0.551,2.848-1.069
		c2.234-1.109,4.659-2.319,7.053-0.489c1.581,1.217,2.505,2.956,3.327,4.495c0.818,1.543,1.515,2.85,2.516,2.875
		c1.338,0.04,3.14-1.466,4.794-2.846c1.114-0.928,2.168-1.805,3.102-2.234c1.493-0.682,3.804-0.739,5.766-0.791
		c1.142-0.029,2.152-0.057,2.73-0.194c0.45-0.106,0.741-0.52,1.034-0.928c0.657-0.919,1.303-1.83,3.248-1.369l0,0
		c1.4,0.328,3.078,1.058,4.557,1.967c1.389,0.849,2.624,1.865,3.322,2.886c0.234,0.337,0.607,0.732,1.074,1.131
		c0.875,0.739,2.064,1.457,3.299,1.796c1.169,0.326,2.381,0.302,3.391-0.392c0.26-0.181,0.516-0.41,0.757-0.693
		c1.546-1.83,2.901-2.948,4.427-3.625c1.521-0.673,3.164-0.891,5.307-0.926h0.011v1.283c-1.975,0.031-3.468,0.223-4.803,0.815
		c-1.331,0.591-2.547,1.603-3.973,3.281c-0.304,0.37-0.644,0.673-0.999,0.917c-1.367,0.944-2.956,0.99-4.458,0.573
		c-1.435-0.394-2.794-1.215-3.788-2.055c-0.551-0.467-1.008-0.952-1.3-1.376c-0.593-0.864-1.687-1.758-2.937-2.522
		c-1.371-0.842-2.912-1.512-4.183-1.814l0,0c-1.107-0.262-1.508,0.299-1.911,0.86c-0.425,0.607-0.857,1.213-1.782,1.435
		c-0.708,0.168-1.786,0.199-2.992,0.232c-1.841,0.044-4.006,0.102-5.272,0.675c-0.77,0.35-1.758,1.178-2.805,2.051
		c-1.83,1.528-3.826,3.191-5.656,3.144c-1.755-0.049-2.611-1.66-3.616-3.556c-0.757-1.426-1.614-3.04-2.972-4.079
		c-1.758-1.345-3.813-0.317-5.706,0.62c-1.153,0.573-2.254,1.122-3.317,1.202c-1.543,0.117-4.024,0.503-5.926,1.103
		c-1.22,0.381-2.159,0.815-2.306,1.237c-0.629,1.814-5.338,3.885-5.352,3.891l-0.425,0.188l-0.313-0.352
		c-0.007-0.011-3.135-3.601-8.698-8.028c-2.981-2.37-3.982-0.961-4.838,0.252l0,0c-0.769,1.083-1.459,2.059-2.868,1.612
		c-2.445-0.771-16.049,0.232-16.094,0.236l-0.091-1.287L65.153,186.709z"/>
	<path style="fill:#FEFEFE;" d="M178.616,131.177h28.291v1.195h-28.291V131.177z"/>
	<path style="fill:#FEFEFE;" d="M178.616,119.5h9.369v1.195h-9.369V119.5z"/>
	<path style="fill:#FEFEFE;" d="M178.616,124.786h18.402v1.195h-18.402V124.786z"/>
	<path style="fill:#FEFEFE;" d="M178.616,160.323h28.291v1.195h-28.291V160.323z"/>
	<path style="fill:#FEFEFE;" d="M178.616,148.644h9.369v1.195h-9.369V148.644z"/>
	<path style="fill:#FEFEFE;" d="M178.616,153.929h18.402v1.195h-18.402V153.929z"/>
	<path style="fill:#FEFEFE;" d="M178.616,195.173h28.291v1.195h-28.291V195.173z"/>
	<path style="fill:#FEFEFE;" d="M178.616,183.496h9.369v1.195h-9.369V183.496z"/>
	<path style="fill:#FEFEFE;" d="M178.616,188.781h18.402v1.195h-18.402V188.781z"/>
</g>
<path style="fill:#FAD24D;" d="M38.159,117.793h9.715c2.719,0,4.943,2.223,4.943,4.941v0.002c0,2.719-2.225,4.941-4.943,4.941
	h-9.715c-2.719,0-4.943-2.223-4.943-4.941v-0.002C33.216,120.016,35.441,117.793,38.159,117.793z"/>
<path style="fill:#FF5B62;" d="M38.159,136.711h9.715c2.719,0,4.943,2.223,4.943,4.943l0,0c0,2.719-2.225,4.943-4.943,4.943h-9.715
	c-2.719,0-4.943-2.225-4.943-4.943l0,0C33.216,138.936,35.441,136.711,38.159,136.711z"/>
<path style="fill:#21D0C3;" d="M38.159,155.629h9.715c2.719,0,4.943,2.225,4.943,4.943l0,0c0,2.719-2.225,4.943-4.943,4.943h-9.715
	c-2.719,0-4.943-2.225-4.943-4.943l0,0C33.216,157.854,35.441,155.629,38.159,155.629z"/>
<g>
	<path style="fill:#FFFFFF;" d="M43.079,180.081c3.155,0,5.711,2.555,5.711,5.711c0,3.153-2.555,5.711-5.711,5.711
		c-3.153,0-5.709-2.558-5.709-5.711C37.37,182.637,39.925,180.081,43.079,180.081z"/>
	<path style="fill:#FFFFFF;" d="M43.079,198.787c1.404,0,2.542,1.138,2.542,2.542s-1.138,2.542-2.542,2.542
		c-1.404,0-2.542-1.138-2.542-2.542C40.536,199.925,41.673,198.787,43.079,198.787z"/>
</g>
<rect x="92.18" y="231.138" style="fill:#EBECEC;" width="55.362" height="5.375"/>
<rect x="112.839" y="236.517" style="fill:#FEFEFE;" width="14.033" height="92.499"/>
<g>
</g>
<g>
</g>
<g>
</g>
<g>
</g>
<g>
</g>
<g>
</g>
<g>
</g>
<g>
</g>
<g>
</g>
<g>
</g>
<g>
</g>
<g>
</g>
<g>
</g>
<g>
</g>
<g>
</g>
</svg>
